<svg width="104" height="90" viewBox="0 0 104 90" fill="none" xmlns="http://www.w3.org/2000/svg">
<rect width="104" height="90" fill="white"/>
<path fill-rule="evenodd" clip-rule="evenodd" d="M62.242 31.4198L78.3131 63.9662C79.0863 65.5215 80.5643 66.362 81.6311 65.85L82.5903 65.3863C83.6473 64.8743 83.8822 63.203 83.1188 61.6573L65.5208 26.0388C65.0119 25.0051 64.18 24.2806 63.3676 24.0681L63.2599 24.0101H61.6156L61.4982 24.0681C60.5684 24.097 59.5211 24.8796 58.924 26.0968L52.3371 39.438C51.5638 40.9934 51.8085 42.6646 52.8656 43.1767L53.8248 43.6404C54.8818 44.1524 56.3695 43.3022 57.1329 41.7469L62.242 31.4198ZM21.9859 24.6091C20.9191 25.1211 20.6842 26.7923 21.4476 28.3477L39.0456 63.9662C39.6133 65.1158 40.6899 65.879 41.5806 65.9852H41.4631H43.2249L43.3325 65.9079C44.1938 65.7534 45.1041 65.0095 45.6522 63.8986L52.2392 50.567C53.0026 49.0116 52.7677 47.3404 51.7106 46.8283L50.7417 46.3646C49.6846 45.8526 48.2067 46.7028 47.4335 48.2484L42.3342 58.5756L26.2533 26.0388C25.4899 24.4835 24.0022 23.643 22.9451 24.1454L21.9859 24.6091Z" fill="url(#paint0_linear_10_326)"/>
<defs>
<linearGradient id="paint0_linear_10_326" x1="20.9996" y1="45" x2="83.5666" y2="45" gradientUnits="userSpaceOnUse">
<stop offset="0.343" stop-color="#0E7586"/>
<stop offset="0.8021" stop-color="#42B48B"/>
</linearGradient>
</defs>
</svg>
